<?xml version="1.0" encoding="utf-8"?>
<!-- Generator: Adobe Illustrator 27.5.0, SVG Export Plug-In . SVG Version: 6.00 Build 0)  -->
<svg version="1.1" id="Layer_1" xmlns="http://www.w3.org/2000/svg" xmlns:xlink="http://www.w3.org/1999/xlink" x="0px" y="0px"
	 viewBox="0 0 244.4 244.4" style="enable-background:new 0 0 244.4 244.4;" xml:space="preserve">
<style type="text/css">
	.st0{fill:#14105A;}
</style>
<path class="st0" d="M122.2,0C54.7,0,0,54.7,0,122.2s54.7,122.2,122.2,122.2s122.2-54.7,122.2-122.2S189.7,0,122.2,0z M62.3,143.8
	c-11.9,0-21.6-9.7-21.6-21.6c0-11.9,9.7-21.6,21.6-21.6c11.9,0,21.6,9.7,21.6,21.6C83.9,134.1,74.2,143.8,62.3,143.8z M122.2,143.8
	c-11.9,0-21.6-9.7-21.6-21.6c0-11.9,9.7-21.6,21.6-21.6c11.9,0,21.6,9.7,21.6,21.6C143.8,134.1,134.1,143.8,122.2,143.8z
	 M182.1,143.8c-11.9,0-21.6-9.7-21.6-21.6c0-11.9,9.7-21.6,21.6-21.6s21.6,9.7,21.6,21.6C203.7,134.1,194,143.8,182.1,143.8z"/>
</svg>
