<?xml version="1.0" encoding="utf-8"?>
<!-- Generator: Adobe Illustrator 27.5.0, SVG Export Plug-In . SVG Version: 6.00 Build 0)  -->
<svg version="1.1" id="Layer_1" xmlns="http://www.w3.org/2000/svg" xmlns:xlink="http://www.w3.org/1999/xlink" x="0px" y="0px"
	 viewBox="0 0 228.9 228.9" style="enable-background:new 0 0 228.9 228.9;" xml:space="preserve">
<style type="text/css">
	.st0{fill:#14105A;}
</style>
<g id="_x32_1mKOw.tif">
	<g>
		<path class="st0" d="M36.3,228.9c1.1-0.1,2.2-0.3,3.3-0.4c0-0.1,0-0.1,0-0.2c-0.9,0-1.9,0-2.8,0c-4.9-0.2-9.4-2.1-13.7-4.3
			c-8.8-4.6-15.1-11.5-19.3-20.5c-2.2-4.6-3.3-9.5-3.6-14.6C0,184.6,0,180.3,0,176c0-48.7,0-97.4,0-146.1c0-3.8,0.4-7.5,1.8-11.1
			C4.2,12.5,8.3,7.6,14.1,4c4.6-2.8,9.6-4,15-4C69,0,108.8,0,148.7,0c2.4,0,4.8,0,7.2,0c0.4,0,0.8,0,1.4,0c-0.3,0.4-0.5,0.7-0.7,0.9
			c-9,9-17.9,17.9-26.9,26.9c-0.7,0.7-1.3,0.9-2.2,0.9c-32.6,0-65.2,0-97.7,0c-0.3,0-0.7,0-1.1,0c0,0.4,0,0.7,0,1
			c0,52,0,103.9,0,155.9c0,5.6,2.3,9.9,7.1,12.8c2.6,1.6,5.4,2,8.4,2c10.1,0,20.3,0,30.4,0c36.8,0,73.7,0,110.5,0
			c3.7,0,7.1-0.8,10.1-3.3c3.3-2.8,5.2-6.3,5.2-10.6c0.1-10.3,0-20.5,0-30.8c0-18.2,0-36.3,0-54.5c0-0.7,0.2-1.3,0.7-1.8
			c4.6-4.6,9.1-9.2,13.7-13.7c4.5-4.5,9.1-9,13.6-13.5c0.2-0.2,0.4-0.4,0.6-0.7c0,40.1,0,80.1,0,120.2c-0.1-0.8-0.2-1.6-0.4-2.5
			c-0.1,0-0.2,0-0.2,0c0,1,0.1,2,0,3c-0.1,1-0.2,2-0.4,3c-2.9,11.7-9.3,20.9-19.6,27.3c-4.3,2.7-8.9,4.7-13.9,5.5
			c-1.7,0.3-3.5,0.2-5.3,0.4c0,0,0,0,0,0.1c1.3,0.2,2.6,0.3,3.9,0.5C140.7,228.9,88.5,228.9,36.3,228.9z"/>
		<path class="st0" d="M86,102.1c3.5-3.4,6.9-6.8,10.3-10.2c29.1-29.1,58.1-58.1,87.2-87.2c1.3-1.3,2.7-2.6,4.3-3.6
			c3.1-1.9,6.4-1.4,8.9,1.1c7.5,7.5,15.1,15,22.6,22.5c2.4,2.4,4.7,4.8,7.1,7c3,2.7,2.5,7.8,0.4,10.3c-1.5,1.7-3.2,3.3-4.8,4.9
			c-8.7,8.7-17.4,17.4-26.1,26.1c-9.8,9.8-19.7,19.7-29.5,29.5c-8.5,8.5-17,17-25.5,25.5c-4.6,4.6-9.2,9.1-13.7,13.7
			c-0.5,0.5-0.8,0.5-1.3,0c-10.2-10.2-20.3-20.3-30.5-30.5c-2.9-2.9-5.7-5.8-8.6-8.7C86.5,102.6,86.3,102.4,86,102.1z"/>
		<path class="st0" d="M117,154.1c-18.7,4.7-37.6,9.4-56.7,14.2c4.8-19.2,9.5-38,14.2-56.8C88.6,125.7,102.8,139.9,117,154.1z"/>
	</g>
</g>
</svg>
