<?xml version="1.0" encoding="UTF-8"?><svg id="Layer_2" xmlns="http://www.w3.org/2000/svg" viewBox="0 0 388.31 147.73"><defs><style>.cls-1{fill:#14105a;}</style></defs><g id="Layer_1-2"><path class="cls-1" d="m168.51,130.26c-8.64,5.38-17.09,7.3-22.27,7.3-.38,0-.77,0-1.15.19-.19-.19-.38-.19-.96-.19-4.22,0-8.45-1.54-12.86-4.8-7.1-6.14-10.37-19.2-13.44-32.45-2.11-8.45-3.84-16.32-6.91-23.04l-.77-1.73c-.19-.58-.19-1.15-.19-1.92,0-1.34,1.15-3.65,2.88-4.61,3.65-1.73,6.72-4.03,10.37-6.91,8.26-6.72,14.98-15.55,22.46-24.19,10.56-13.63,21.5-26.3,32.26-26.3,2.88,0,4.99-2.11,4.99-4.99s-2.11-5.18-4.99-5.18c-15.55,0-27.46,14.59-40.32,30.14-12.67,16.13-27.07,32.45-44.35,32.45h-1.73c-2.5,0-4.61-1.34-3.26-4.99,5.57-13.44,10.37-24.38,13.63-31.68,3.65-7.87,10.56-15.94,22.66-15.94,2.5,0,4.61-2.11,4.61-4.99s-2.11-4.99-4.61-4.99h-36.67c-9.41,0-16.51,1.34-21.7,4.03-5.57,2.88-9.22,7.3-10.56,12.86-.96,4.61,0,9.41,3.07,13.06,3.07,4.03,8.26,6.14,13.82,6.14,2.88,0,5.18-1.92,5.18-4.8s-2.3-5.18-5.18-5.18c-2.3,0-4.42-.96-5.76-2.69-.77-.96-1.54-2.11-.96-4.22.58-2.5,2.11-4.61,4.99-6.14,4.03-2.11,9.6-3.07,17.09-3.07h5.38c2.5.19,4.99.77,3.65,4.42-1.73,2.5-4.8,8.83-9.22,18.82-4.22,9.79-7.3,17.09-9.02,21.5-3.65,5.95-9.41,10.18-13.44,10.94-17.09,3.84-29.76,10.56-38.02,16.7C12.42,93.97,2.43,108.37.32,121.62c-1.73,12.29,3.65,21.7,13.82,24.77,2.5.77,4.8,1.15,7.3,1.15,2.11,0,4.22-.19,6.34-.58,4.03-.96,7.87-2.88,11.9-5.76,6.34-4.61,12.48-11.33,18.43-19.97,4.8-7.1,9.02-14.78,11.9-20.35,2.88-5.95,6.14-14.21,8.26-18.62,1.73-2.88,4.8-7.3,14.78-7.87,2.5,0,5.76,1.15,8.64,7.3,2.88,5.38,4.42,12.48,6.14,20.74,2.11,8.26,3.65,16.51,6.91,24,2.5,5.95,5.76,10.37,9.41,13.63.58.19.58.58.77.77q0,.19.19.19c1.54,1.34,2.69,2.3,4.8,3.07,4.42,2.5,9.22,3.65,14.21,3.65.58,0,.77,0,.96-.19.38.19.77.19,1.15.19,2.88,0,14.59-.38,27.84-9.02,2.3-1.34,3.07-4.61,1.73-6.91-1.54-2.3-4.42-3.07-7.3-1.54Zm-107.71-34.56c-2.5,5.57-6.53,12.86-11.14,19.78-7.1,10.56-17.47,21.89-28.22,21.89-1.73,0-3.07-.19-4.42-.58-6.72-2.11-7.3-8.45-6.53-13.63,2.11-13.44,16.32-31.1,41.47-41.28,1.34-.19,3.26-1.73,8.45-2.11,3.26-.19,4.61.38,5.18,2.11.77,1.73-1.92,8.26-4.8,13.82Z"/><path class="cls-1" d="m231.87,78.61c-4.42-4.8-5.95-7.3-4.99-10.18l.96-1.92c.19-.77.38-1.34.38-1.92.19-2.88-1.54-4.8-4.03-5.38-.77-.19-3.84-.58-5.95,3.07l-7.87,16.7c-1.34,2.5,0,5.57,2.5,6.91,2.3.96,5.18.19,6.53-1.92.58-1.15,1.54-1.34,2.69-.77l1.92,2.11c4.61,5.38,7.49,8.64,5.76,14.78-1.54,6.14-6.34,7.87-9.98,7.87h-.19c-.96,0-1.73-.19-2.5-.58-1.5-.56-4.98-3.14-3.39-8.77.04-.09.08-.17.12-.25,1.34-2.88,0-5.76-2.5-7.1-2.88-1.34-5.57-.19-6.91,2.69-.06.17-.18.49-.37.94,0,0,0,.01,0,.02,0,0,0,0,0,0-.48,1.12-1.39,3.09-2.88,5.95-2.11,4.03-7.1,7.1-10.75,7.1-3.07,0-9.22-1.92-4.42-13.63l2.11-4.42,32.06-73.73c1.34-2.88.19-5.57-2.69-6.91-2.3-1.34-5.18-.19-6.53,2.69l-22.08,50.5c-1.73,3.26-3.26,3.65-6.91,2.69-6.14-1.73-9.79-1.54-11.9-.96-12.29,2.5-20.35,9.98-27.46,25.34-3.07,6.91-3.46,14.21-.96,19.78,2.3,4.03,5.57,6.91,9.98,8.26,2.11.58,3.46.58,5.57.58h1.15c3.07,0,6.14-.77,9.41-2.11l3.46-1.73c2.88-2.11,5.18-2.3,7.49-.19,2.3,1.73,7.49,4.03,11.52,4.03h.19c3.84,0,7.68-1.15,11.52-3.65,1.34-.83,2.67-1.98,4-3.44,1.52,2.11,3.63,3.87,6.37,5.35,2.11,1.15,4.42,1.73,7.3,1.73h.19c3.07,0,7.1-.38,11.52-3.26,3.26-2.11,5.76-5.18,7.49-8.83,2.5-5.95,2.5-11.52.38-16.7-1.73-4.42-4.8-7.68-7.3-10.75Zm-51.46,2.88l-4.22,9.22c-.58.96-.77,1.92-1.34,2.88-2.5,5.18-5.57,9.22-9.02,11.71-2.3,1.73-4.8,2.88-7.68,3.07-2.5,0-5.18.19-7.3-3.26-1.15-3.07-.77-6.91,1.15-11.33,5.57-12.29,11.52-17.47,19.97-19.58.96-.19,1.92-.19,2.69-.19,2.5,0,4.42.77,5.38,2.11.96.96.96,2.88.38,5.38Z"/><path class="cls-1" d="m387.83,116.8l-13.55-23.93c-2.24-4.12-5.87-7.37-10.21-9.15l-8.14-3.34-22.64-28.52c-1.48-1.86-3.58-3.19-5.93-3.5-3.17-.42-6.22.84-8.17,3.28l-2.18,2.74L278.55,3.25c-2.47-3.29-7.01-4.21-10.58-2.16l-9.55,5.51c-3.1,1.79-5.82,4.3-7.87,7.24l-19.92,28.67c-.79,1.13-2.06,3.28-3.49,5.56-2.34,3.74,1.81,3.28,6.26,3.28,1.81,0,3.57-.48,4.64-1.94.28-.39.56-.77.84-1.17l19.92-28.67c.91-1.33,2.43-2.61,3.78-3.58.94-.68,2.21.19,1.91,1.31l-.76,2.82c-.35,1.29-.17,2.66.5,3.81l3.44,5.99c.89,1.55.39,3.53-1.14,4.46l-4.86,2.98c-.71.43-1.34,1-1.77,1.71-1.21,2.01-.89,4.44.58,6.05l32.34,35.21c1.12,1.21,1.18,3.06.16,4.35l-.53.66c-.77.97-2,1.45-3.23,1.26l-5.29-.83c-1.48-.23-2.9.21-3.97,1.08-.33.23-.64.5-.91.8l-24.95,27.55c-2.91,3.18,1.34,3.56,4.11,3.56,2.1,0,5.89-.21,9.46-3.29l12.05-13.4c1.2-1.35,3.13-1.65,4.76-.86.91.44,1.9.71,2.94.8,2.73.22,5.37-.93,7.07-3.08l24.18-30.46c1.24-1.56,3.76-.81,3.94,1.17l.67,7.35c.21,2.28,1.92,4.13,4.18,4.5l3.66.61c2.35.39,4.41,1.77,5.67,3.8l12.76,20.27c.95,1.53,2.65,1.77,5.97,1.77,2.82,0,6.2-.51,4.83-2.72l-7.75-12.92c-.64-1.03.41-2.27,1.53-1.81,2.76,1.14,6.11,2.52,6.11,2.52,2.21.9,4.05,2.56,5.19,4.65l10.33,17.94c1.75,3.12,3.81,4.62,6.37,4.62.88,0,1.8-.12,2.75-.12,2.73,0,4.24-.91,2.93-3.31Z"/></g></svg>